<mxfile host="app.diagrams.net" modified="2023-01-29T12:42:32.977Z" agent="5.0 (Windows NT 10.0; Win64; x64) AppleWebKit/537.36 (KHTML, like Gecko) Chrome/108.0.0.0 Safari/537.36" etag="IOC7w6S-O7ldoNxyp_qY" version="20.8.13" type="github">
  <diagram id="kgpKYQtTHZ0yAKxKKP6v" name="Page-1">
    <mxGraphModel dx="941" dy="461" grid="1" gridSize="10" guides="1" tooltips="1" connect="1" arrows="1" fold="1" page="1" pageScale="1" pageWidth="850" pageHeight="1100" math="0" shadow="0">
      <root>
        <mxCell id="0" />
        <mxCell id="1" parent="0" />
        <mxCell id="3nuBFxr9cyL0pnOWT2aG-1" value="主端" style="shape=umlLifeline;perimeter=lifelinePerimeter;container=1;collapsible=0;recursiveResize=0;rounded=0;shadow=0;strokeWidth=1;fillColor=#d5e8d4;strokeColor=#82b366;" parent="1" vertex="1">
          <mxGeometry x="100" y="80" width="100" height="300" as="geometry" />
        </mxCell>
        <mxCell id="86syqAoqWmd0jVh2vs_k-10" value="" style="rounded=0;whiteSpace=wrap;html=1;fillColor=#eeeeee;strokeColor=#36393d;" vertex="1" parent="3nuBFxr9cyL0pnOWT2aG-1">
          <mxGeometry x="40" y="100" width="20" height="20" as="geometry" />
        </mxCell>
        <mxCell id="86syqAoqWmd0jVh2vs_k-20" value="" style="rounded=0;whiteSpace=wrap;html=1;fillColor=#eeeeee;strokeColor=#36393d;" vertex="1" parent="3nuBFxr9cyL0pnOWT2aG-1">
          <mxGeometry x="40" y="140" width="20" height="20" as="geometry" />
        </mxCell>
        <mxCell id="86syqAoqWmd0jVh2vs_k-35" value="" style="rounded=0;whiteSpace=wrap;html=1;fillColor=#eeeeee;strokeColor=#36393d;" vertex="1" parent="3nuBFxr9cyL0pnOWT2aG-1">
          <mxGeometry x="40" y="200" width="20" height="20" as="geometry" />
        </mxCell>
        <mxCell id="86syqAoqWmd0jVh2vs_k-37" value="" style="endArrow=classic;html=1;rounded=0;fontSize=11;entryX=0;entryY=0.25;entryDx=0;entryDy=0;" edge="1" parent="3nuBFxr9cyL0pnOWT2aG-1" target="86syqAoqWmd0jVh2vs_k-39">
          <mxGeometry relative="1" as="geometry">
            <mxPoint x="60" y="210" as="sourcePoint" />
            <mxPoint x="160" y="210" as="targetPoint" />
          </mxGeometry>
        </mxCell>
        <mxCell id="86syqAoqWmd0jVh2vs_k-38" value="RPC" style="edgeLabel;resizable=0;html=1;align=center;verticalAlign=middle;fontSize=11;" connectable="0" vertex="1" parent="86syqAoqWmd0jVh2vs_k-37">
          <mxGeometry relative="1" as="geometry" />
        </mxCell>
        <mxCell id="3nuBFxr9cyL0pnOWT2aG-5" value="服务器" style="shape=umlLifeline;perimeter=lifelinePerimeter;container=1;collapsible=0;recursiveResize=0;rounded=0;shadow=0;strokeWidth=1;fillColor=#dae8fc;strokeColor=#6c8ebf;" parent="1" vertex="1">
          <mxGeometry x="280" y="80" width="100" height="330" as="geometry" />
        </mxCell>
        <mxCell id="86syqAoqWmd0jVh2vs_k-5" value="" style="rounded=0;whiteSpace=wrap;html=1;fillColor=#eeeeee;strokeColor=#36393d;" vertex="1" parent="3nuBFxr9cyL0pnOWT2aG-5">
          <mxGeometry x="40" y="50" width="20" height="20" as="geometry" />
        </mxCell>
        <mxCell id="86syqAoqWmd0jVh2vs_k-12" value="" style="rounded=0;whiteSpace=wrap;html=1;fillColor=#eeeeee;strokeColor=#36393d;" vertex="1" parent="3nuBFxr9cyL0pnOWT2aG-5">
          <mxGeometry x="40" y="110" width="20" height="20" as="geometry" />
        </mxCell>
        <mxCell id="86syqAoqWmd0jVh2vs_k-28" value="" style="endArrow=classic;html=1;rounded=0;fontSize=11;" edge="1" parent="3nuBFxr9cyL0pnOWT2aG-5">
          <mxGeometry relative="1" as="geometry">
            <mxPoint x="60" y="120" as="sourcePoint" />
            <mxPoint x="220" y="140" as="targetPoint" />
          </mxGeometry>
        </mxCell>
        <mxCell id="86syqAoqWmd0jVh2vs_k-29" value="TargetDataInfo" style="edgeLabel;resizable=0;html=1;align=center;verticalAlign=middle;fontSize=11;" connectable="0" vertex="1" parent="86syqAoqWmd0jVh2vs_k-28">
          <mxGeometry relative="1" as="geometry" />
        </mxCell>
        <mxCell id="86syqAoqWmd0jVh2vs_k-43" style="edgeStyle=orthogonalEdgeStyle;rounded=0;orthogonalLoop=1;jettySize=auto;html=1;exitX=0.5;exitY=1;exitDx=0;exitDy=0;entryX=0.5;entryY=0;entryDx=0;entryDy=0;fontSize=11;" edge="1" parent="3nuBFxr9cyL0pnOWT2aG-5" source="86syqAoqWmd0jVh2vs_k-39" target="86syqAoqWmd0jVh2vs_k-40">
          <mxGeometry relative="1" as="geometry" />
        </mxCell>
        <mxCell id="86syqAoqWmd0jVh2vs_k-39" value="" style="rounded=0;whiteSpace=wrap;html=1;fillColor=#eeeeee;strokeColor=#36393d;" vertex="1" parent="3nuBFxr9cyL0pnOWT2aG-5">
          <mxGeometry x="40" y="230" width="20" height="20" as="geometry" />
        </mxCell>
        <mxCell id="86syqAoqWmd0jVh2vs_k-40" value="" style="rounded=0;whiteSpace=wrap;html=1;fillColor=#eeeeee;strokeColor=#36393d;" vertex="1" parent="3nuBFxr9cyL0pnOWT2aG-5">
          <mxGeometry x="40" y="270" width="20" height="20" as="geometry" />
        </mxCell>
        <mxCell id="86syqAoqWmd0jVh2vs_k-41" value="&lt;font style=&quot;font-size: 11px;&quot;&gt;PerformTrace&lt;/font&gt;" style="text;html=1;strokeColor=none;fillColor=none;align=center;verticalAlign=middle;whiteSpace=wrap;rounded=0;fontSize=11;" vertex="1" parent="3nuBFxr9cyL0pnOWT2aG-5">
          <mxGeometry x="40" y="90" width="40" height="20" as="geometry" />
        </mxCell>
        <mxCell id="86syqAoqWmd0jVh2vs_k-42" value="Destroy" style="text;html=1;strokeColor=none;fillColor=none;align=center;verticalAlign=middle;whiteSpace=wrap;rounded=0;fontSize=11;" vertex="1" parent="3nuBFxr9cyL0pnOWT2aG-5">
          <mxGeometry x="20" y="290" width="60" height="30" as="geometry" />
        </mxCell>
        <mxCell id="86syqAoqWmd0jVh2vs_k-46" value="" style="endArrow=classic;html=1;rounded=0;fontSize=11;entryX=0;entryY=0.5;entryDx=0;entryDy=0;" edge="1" parent="3nuBFxr9cyL0pnOWT2aG-5" target="86syqAoqWmd0jVh2vs_k-44">
          <mxGeometry relative="1" as="geometry">
            <mxPoint x="60" y="280" as="sourcePoint" />
            <mxPoint x="160" y="280" as="targetPoint" />
          </mxGeometry>
        </mxCell>
        <mxCell id="86syqAoqWmd0jVh2vs_k-47" value="RPC" style="edgeLabel;resizable=0;html=1;align=center;verticalAlign=middle;fontSize=11;" connectable="0" vertex="1" parent="86syqAoqWmd0jVh2vs_k-46">
          <mxGeometry relative="1" as="geometry" />
        </mxCell>
        <mxCell id="86syqAoqWmd0jVh2vs_k-54" value="" style="endArrow=classic;html=1;rounded=0;fontSize=11;" edge="1" parent="3nuBFxr9cyL0pnOWT2aG-5">
          <mxGeometry relative="1" as="geometry">
            <mxPoint x="60" y="60" as="sourcePoint" />
            <mxPoint x="220" y="60" as="targetPoint" />
            <Array as="points">
              <mxPoint x="200" y="60" />
            </Array>
          </mxGeometry>
        </mxCell>
        <mxCell id="86syqAoqWmd0jVh2vs_k-55" value="RPC" style="edgeLabel;resizable=0;html=1;align=center;verticalAlign=middle;fontSize=11;" connectable="0" vertex="1" parent="86syqAoqWmd0jVh2vs_k-54">
          <mxGeometry relative="1" as="geometry" />
        </mxCell>
        <mxCell id="86syqAoqWmd0jVh2vs_k-1" value="从端" style="shape=umlLifeline;perimeter=lifelinePerimeter;container=1;collapsible=0;recursiveResize=0;rounded=0;shadow=0;strokeWidth=1;fillColor=#d5e8d4;strokeColor=#82b366;" vertex="1" parent="1">
          <mxGeometry x="460" y="80" width="100" height="300" as="geometry" />
        </mxCell>
        <mxCell id="86syqAoqWmd0jVh2vs_k-17" value="" style="rounded=0;whiteSpace=wrap;html=1;fillColor=#eeeeee;strokeColor=#36393d;" vertex="1" parent="86syqAoqWmd0jVh2vs_k-1">
          <mxGeometry x="40" y="140" width="20" height="20" as="geometry" />
        </mxCell>
        <mxCell id="86syqAoqWmd0jVh2vs_k-44" value="" style="rounded=0;whiteSpace=wrap;html=1;fillColor=#eeeeee;strokeColor=#36393d;" vertex="1" parent="86syqAoqWmd0jVh2vs_k-1">
          <mxGeometry x="40" y="280" width="20" height="20" as="geometry" />
        </mxCell>
        <mxCell id="86syqAoqWmd0jVh2vs_k-56" value="" style="rounded=0;whiteSpace=wrap;html=1;fillColor=#eeeeee;strokeColor=#36393d;" vertex="1" parent="86syqAoqWmd0jVh2vs_k-1">
          <mxGeometry x="40" y="50" width="20" height="20" as="geometry" />
        </mxCell>
        <mxCell id="86syqAoqWmd0jVh2vs_k-4" value="" style="verticalAlign=bottom;endArrow=none;shadow=0;strokeWidth=1;exitX=0.498;exitY=0.218;exitDx=0;exitDy=0;exitPerimeter=0;entryX=0.5;entryY=0.4;entryDx=0;entryDy=0;entryPerimeter=0;" edge="1" parent="1" source="3nuBFxr9cyL0pnOWT2aG-1" target="86syqAoqWmd0jVh2vs_k-3">
          <mxGeometry x="-1" y="157" relative="1" as="geometry">
            <mxPoint x="149.80000000000018" y="145.39999999999998" as="sourcePoint" />
            <mxPoint x="330" y="199.9999999999999" as="targetPoint" />
            <Array as="points" />
            <mxPoint x="-125" y="62" as="offset" />
          </mxGeometry>
        </mxCell>
        <mxCell id="86syqAoqWmd0jVh2vs_k-3" value="" style="rounded=0;whiteSpace=wrap;html=1;fillColor=#eeeeee;strokeColor=#36393d;" vertex="1" parent="1">
          <mxGeometry x="140" y="130" width="20" height="20" as="geometry" />
        </mxCell>
        <mxCell id="86syqAoqWmd0jVh2vs_k-6" value="GameplayAbilityTargetActor复制到服务器的预览更新模式" style="text;strokeColor=none;align=center;fillColor=none;html=1;verticalAlign=middle;whiteSpace=wrap;rounded=0;" vertex="1" parent="1">
          <mxGeometry x="160" y="30" width="330" height="30" as="geometry" />
        </mxCell>
        <mxCell id="86syqAoqWmd0jVh2vs_k-7" value="&lt;font style=&quot;font-size: 11px;&quot;&gt;StartTargeting&lt;/font&gt;" style="text;strokeColor=none;align=center;fillColor=none;html=1;verticalAlign=middle;whiteSpace=wrap;rounded=0;fontSize=8;" vertex="1" parent="1">
          <mxGeometry x="30" y="130" width="90" height="15" as="geometry" />
        </mxCell>
        <mxCell id="86syqAoqWmd0jVh2vs_k-13" value="" style="endArrow=none;dashed=1;html=1;rounded=0;fontSize=11;" edge="1" parent="1">
          <mxGeometry width="50" height="50" relative="1" as="geometry">
            <mxPoint x="30" y="160" as="sourcePoint" />
            <mxPoint x="610" y="160" as="targetPoint" />
          </mxGeometry>
        </mxCell>
        <mxCell id="86syqAoqWmd0jVh2vs_k-26" value="" style="endArrow=classic;html=1;rounded=0;fontSize=11;entryX=0;entryY=0.5;entryDx=0;entryDy=0;" edge="1" parent="1" target="86syqAoqWmd0jVh2vs_k-12">
          <mxGeometry relative="1" as="geometry">
            <mxPoint x="160" y="190" as="sourcePoint" />
            <mxPoint x="260" y="190" as="targetPoint" />
          </mxGeometry>
        </mxCell>
        <mxCell id="86syqAoqWmd0jVh2vs_k-27" value="ClientData" style="edgeLabel;resizable=0;html=1;align=center;verticalAlign=middle;fontSize=11;" connectable="0" vertex="1" parent="86syqAoqWmd0jVh2vs_k-26">
          <mxGeometry relative="1" as="geometry">
            <mxPoint x="-10" y="-5" as="offset" />
          </mxGeometry>
        </mxCell>
        <mxCell id="86syqAoqWmd0jVh2vs_k-30" value="" style="endArrow=classic;html=1;rounded=0;fontSize=11;entryX=1;entryY=0;entryDx=0;entryDy=0;" edge="1" parent="1" target="86syqAoqWmd0jVh2vs_k-20">
          <mxGeometry relative="1" as="geometry">
            <mxPoint x="320" y="200" as="sourcePoint" />
            <mxPoint x="350" y="230" as="targetPoint" />
          </mxGeometry>
        </mxCell>
        <mxCell id="86syqAoqWmd0jVh2vs_k-31" value="TargetDataInfo" style="edgeLabel;resizable=0;html=1;align=center;verticalAlign=middle;fontSize=11;" connectable="0" vertex="1" parent="86syqAoqWmd0jVh2vs_k-30">
          <mxGeometry relative="1" as="geometry" />
        </mxCell>
        <mxCell id="86syqAoqWmd0jVh2vs_k-32" value="&lt;div style=&quot;text-align: center;&quot;&gt;&lt;span style=&quot;background-color: initial;&quot;&gt;Update&lt;/span&gt;&lt;/div&gt;" style="text;whiteSpace=wrap;html=1;fontSize=11;" vertex="1" parent="1">
          <mxGeometry x="40" y="200" width="50" height="40" as="geometry" />
        </mxCell>
        <mxCell id="86syqAoqWmd0jVh2vs_k-33" value="" style="endArrow=none;dashed=1;html=1;rounded=0;fontSize=11;" edge="1" parent="1">
          <mxGeometry width="50" height="50" relative="1" as="geometry">
            <mxPoint x="30" y="260" as="sourcePoint" />
            <mxPoint x="610" y="260" as="targetPoint" />
          </mxGeometry>
        </mxCell>
        <mxCell id="86syqAoqWmd0jVh2vs_k-34" value="&lt;div style=&quot;text-align: center;&quot;&gt;Confirm/Cancel&lt;/div&gt;" style="text;whiteSpace=wrap;html=1;fontSize=11;" vertex="1" parent="1">
          <mxGeometry x="40" y="300" width="90" height="20" as="geometry" />
        </mxCell>
        <mxCell id="86syqAoqWmd0jVh2vs_k-49" value="" style="rounded=0;whiteSpace=wrap;html=1;fillColor=#eeeeee;strokeColor=#36393d;" vertex="1" parent="1">
          <mxGeometry x="140" y="370" width="20" height="20" as="geometry" />
        </mxCell>
        <mxCell id="86syqAoqWmd0jVh2vs_k-51" value="" style="endArrow=classic;html=1;rounded=0;fontSize=11;entryX=1;entryY=0.5;entryDx=0;entryDy=0;" edge="1" parent="1" source="86syqAoqWmd0jVh2vs_k-40" target="86syqAoqWmd0jVh2vs_k-49">
          <mxGeometry relative="1" as="geometry">
            <mxPoint x="-80" y="305" as="sourcePoint" />
            <mxPoint x="480" y="465" as="targetPoint" />
          </mxGeometry>
        </mxCell>
        <mxCell id="86syqAoqWmd0jVh2vs_k-52" value="RPC" style="edgeLabel;resizable=0;html=1;align=center;verticalAlign=middle;fontSize=11;" connectable="0" vertex="1" parent="86syqAoqWmd0jVh2vs_k-51">
          <mxGeometry relative="1" as="geometry" />
        </mxCell>
      </root>
    </mxGraphModel>
  </diagram>
</mxfile>
